<svg xmlns="http://www.w3.org/2000/svg" xmlns:xlink="http://www.w3.org/1999/xlink" width="105" height="34" viewBox="0 0 105 34">
    <defs>
        <path id="a" d="M33.778 34.227H0V.273h33.778v33.954z"/>
    </defs>
    <g fill="none" fill-rule="evenodd">
        <g transform="translate(0 .02)">
            <mask id="b" fill="#fff">
                <use xlink:href="#a"/>
            </mask>
            <path fill="#404553" d="M0 17.782c0 9.1 7.736 16.172 16.732 16.172 9.416 0 17.046-7.596 17.046-16.872 0-5.426-2.625-10.186-6.51-13.372l-2.836 4.9c2.346 1.996 3.956 5.076 3.956 8.542 0 6.3-5.216 11.481-11.656 11.481-6.406 0-11.622-5.18-11.622-11.656 0-.77.07-1.54.21-2.276L0 17.781zM21.982.84C20.372.245 18.937 0 17.502 0c-1.085 0-2.03.14-2.73.28l-3.64 6.3c1.33-.77 3.045-1.19 4.9-1.19 1.085 0 2.065.14 3.08.42l2.87-4.97z" mask="url(#b)"/>
        </g>
        <path fill="#404553" d="M48.136 11.218c-1.306 0-2.491.427-3.4 1.212l-.265-.932h-2.278v11.605h2.901v-6.308c0-1.35.904-2.719 2.633-2.719 1.353 0 2.16.952 2.16 2.548v6.479h2.902v-6.695c0-3.201-1.783-5.19-4.653-5.19M85.006 17.031c0 1.863-1.216 3.215-2.89 3.215-1.676 0-2.892-1.352-2.892-3.215 0-1.862 1.216-3.213 2.891-3.213s2.891 1.351 2.891 3.213m-2.89-6.07c-3.273 0-5.836 2.666-5.836 6.07 0 3.405 2.563 6.072 5.835 6.072s5.836-2.667 5.836-6.072c0-3.404-2.564-6.07-5.836-6.07M67.694 17.031c0 1.863-1.216 3.215-2.89 3.215-1.676 0-2.892-1.352-2.892-3.215 0-1.862 1.216-3.213 2.891-3.213s2.891 1.351 2.891 3.213m-2.89-6.07c-3.273 0-5.836 2.666-5.836 6.07 0 3.405 2.563 6.072 5.835 6.072s5.835-2.667 5.835-6.072c0-3.404-2.563-6.07-5.835-6.07M100.072 11.218c-1.306 0-2.49.427-3.4 1.212l-.264-.932h-2.279v11.605h2.902v-6.308c0-1.35.904-2.719 2.633-2.719 1.353 0 2.16.952 2.16 2.548v6.479h2.902v-6.695c0-3.201-1.783-5.19-4.654-5.19"/>
    </g>
</svg>
